<svg width="385" height="83" viewBox="0 0 385 83" fill="none" xmlns="http://www.w3.org/2000/svg">
<path d="M55.4883 66.0837V81H12.6177V66.0837H55.4883ZM19.5234 0.562498V81H0.132255V0.562498H19.5234ZM49.9637 32.4944V46.9135H12.6177V32.4944H49.9637ZM55.654 0.562498V15.534H12.6177V0.562498H55.654ZM98.9113 39.1239V53.543H65.7087V39.1239H98.9113ZM144.82 64.2054C144.82 63.1741 144.47 62.2902 143.771 61.5536C143.108 60.7801 141.929 60.0804 140.235 59.4542C138.541 58.7913 136.165 58.1283 133.108 57.4654C130.199 56.8393 127.455 56.0106 124.877 54.9794C122.335 53.9481 120.107 52.6959 118.192 51.2227C116.277 49.7494 114.767 48 113.662 45.9743C112.594 43.9487 112.06 41.6283 112.06 39.0134C112.06 36.4721 112.594 34.0781 113.662 31.8315C114.767 29.548 116.369 27.5407 118.468 25.8097C120.604 24.0419 123.201 22.6607 126.258 21.6663C129.315 20.635 132.795 20.1194 136.699 20.1194C142.076 20.1194 146.717 20.9481 150.621 22.6055C154.525 24.226 157.527 26.5095 159.626 29.4559C161.762 32.3655 162.83 35.7355 162.83 39.5658H144.213C144.213 38.0558 143.955 36.7667 143.439 35.6987C142.96 34.6306 142.169 33.8203 141.064 33.2679C139.959 32.6786 138.485 32.3839 136.644 32.3839C135.355 32.3839 134.176 32.6233 133.108 33.1021C132.077 33.5809 131.248 34.2439 130.622 35.091C129.996 35.9381 129.683 36.9325 129.683 38.0742C129.683 38.8845 129.867 39.6211 130.235 40.284C130.641 40.9102 131.248 41.4994 132.059 42.0519C132.869 42.5675 133.9 43.0463 135.152 43.4883C136.405 43.8934 137.915 44.2617 139.682 44.5932C143.697 45.3298 147.454 46.3795 150.953 47.7422C154.451 49.1049 157.287 51.0385 159.46 53.543C161.67 56.0474 162.775 59.4174 162.775 63.6529C162.775 66.3047 162.167 68.7539 160.952 71.0006C159.737 73.2104 157.987 75.1624 155.704 76.8566C153.42 78.514 150.676 79.803 147.472 80.7238C144.268 81.6445 140.658 82.1049 136.644 82.1049C130.935 82.1049 126.11 81.0921 122.17 79.0664C118.229 77.0039 115.246 74.4258 113.22 71.332C111.231 68.2015 110.237 65.034 110.237 61.8298H127.584C127.657 63.6713 128.099 65.1814 128.91 66.3599C129.757 67.5385 130.88 68.404 132.28 68.9565C133.679 69.5089 135.3 69.7852 137.141 69.7852C138.835 69.7852 140.235 69.5458 141.34 69.067C142.482 68.5882 143.347 67.9436 143.936 67.1334C144.526 66.2863 144.82 65.3103 144.82 64.2054ZM253.93 33.8756V81H235.313V21.2243H252.77L253.93 33.8756ZM251.665 49.0681L247.411 49.1786C247.411 44.9799 247.908 41.1127 248.903 37.577C249.897 34.0413 251.371 30.966 253.323 28.351C255.275 25.736 257.669 23.7104 260.504 22.274C263.377 20.8376 266.692 20.1194 270.449 20.1194C273.064 20.1194 275.439 20.5246 277.575 21.3348C279.711 22.1083 281.553 23.3421 283.1 25.0363C284.647 26.6936 285.825 28.8666 286.636 31.5552C287.483 34.207 287.906 37.3929 287.906 41.1127V81H269.289V43.4883C269.289 40.947 268.994 39.0318 268.405 37.7427C267.852 36.4537 267.042 35.5882 265.974 35.1462C264.906 34.7042 263.598 34.4833 262.051 34.4833C260.431 34.4833 258.976 34.8516 257.687 35.5882C256.398 36.3248 255.293 37.356 254.372 38.6819C253.488 39.971 252.807 41.4994 252.328 43.2673C251.886 45.0352 251.665 46.9687 251.665 49.0681ZM285.807 49.0681L280.614 49.1786C280.614 44.9799 281.074 41.1127 281.995 37.577C282.953 34.0413 284.371 30.966 286.249 28.351C288.164 25.736 290.54 23.7104 293.376 22.274C296.211 20.8376 299.508 20.1194 303.265 20.1194C305.99 20.1194 308.494 20.5246 310.778 21.3348C313.061 22.1451 315.032 23.4526 316.689 25.2573C318.347 27.0619 319.636 29.4559 320.556 32.4392C321.477 35.3856 321.938 39.0318 321.938 43.3778V81H303.265V43.3778C303.265 40.9102 302.97 39.0502 302.381 37.798C301.828 36.5089 301.018 35.6434 299.95 35.2014C298.882 34.7227 297.611 34.4833 296.138 34.4833C294.37 34.4833 292.842 34.8516 291.552 35.5882C290.263 36.3248 289.177 37.356 288.293 38.6819C287.446 39.971 286.82 41.4994 286.415 43.2673C286.009 45.0352 285.807 46.9687 285.807 49.0681ZM363.648 65.9732V41.3337C363.648 39.6395 363.408 38.1847 362.93 36.9693C362.451 35.7539 361.696 34.8147 360.665 34.1518C359.633 33.452 358.252 33.1021 356.521 33.1021C355.122 33.1021 353.925 33.3415 352.93 33.8203C351.936 34.2991 351.181 35.0173 350.665 35.9749C350.15 36.9325 349.892 38.1479 349.892 39.6211H331.274C331.274 36.8588 331.882 34.2991 333.097 31.942C334.349 29.548 336.117 27.4671 338.401 25.6992C340.721 23.9314 343.483 22.5686 346.688 21.611C349.929 20.6166 353.538 20.1194 357.516 20.1194C362.267 20.1194 366.502 20.9113 370.222 22.495C373.979 24.0787 376.944 26.4542 379.117 29.6217C381.29 32.7522 382.376 36.6931 382.376 41.4442V65.918C382.376 69.822 382.597 72.7868 383.039 74.8125C383.481 76.8013 384.107 78.5508 384.917 80.0608V81H366.244C365.36 79.1585 364.698 76.9118 364.256 74.26C363.85 71.5714 363.648 68.8092 363.648 65.9732ZM365.913 44.4827L366.023 54.4269H357.792C356.061 54.4269 354.588 54.6663 353.372 55.1451C352.194 55.6239 351.236 56.2868 350.499 57.1339C349.8 57.9442 349.284 58.865 348.953 59.8962C348.658 60.9275 348.511 62.014 348.511 63.1557C348.511 64.2606 348.768 65.255 349.284 66.139C349.836 66.986 350.573 67.649 351.494 68.1278C352.415 68.6066 353.446 68.846 354.588 68.846C356.65 68.846 358.4 68.4593 359.836 67.6858C361.309 66.8756 362.432 65.8996 363.206 64.7578C363.979 63.6161 364.366 62.548 364.366 61.5536L368.454 69.1775C367.718 70.6507 366.871 72.1423 365.913 73.6523C364.992 75.1624 363.832 76.5619 362.432 77.851C361.07 79.1032 359.394 80.1345 357.405 80.9448C355.416 81.7182 353.004 82.1049 350.168 82.1049C346.485 82.1049 343.097 81.3499 340.003 79.8398C336.946 78.3298 334.497 76.2305 332.655 73.5419C330.814 70.8164 329.893 67.6858 329.893 64.1501C329.893 61.0564 330.445 58.2941 331.55 55.8633C332.692 53.4325 334.405 51.37 336.688 49.6758C338.972 47.9816 341.881 46.6925 345.417 45.8086C348.953 44.9247 353.114 44.4827 357.902 44.4827H365.913Z" fill="white"/>
<path d="M169.184 51.7199V50.5597C169.184 46.1769 169.81 42.144 171.062 38.4609C172.314 34.7411 174.156 31.5184 176.587 28.793C179.017 26.0675 182.019 23.9498 185.592 22.4397C189.164 20.8929 193.289 20.1194 197.967 20.1194C202.681 20.1194 206.824 20.8929 210.397 22.4397C214.006 23.9498 217.026 26.0675 219.457 28.793C221.888 31.5184 223.729 34.7411 224.982 38.4609C226.234 42.144 226.86 46.1769 226.86 50.5597V51.7199C226.86 56.0658 226.234 60.0988 224.982 63.8186C223.729 67.5017 221.888 70.7243 219.457 73.4866C217.026 76.2121 214.025 78.3298 210.452 79.8398C206.879 81.3499 202.754 82.1049 198.077 82.1049C193.4 82.1049 189.256 81.3499 185.647 79.8398C182.037 78.3298 179.017 76.2121 176.587 73.4866C174.156 70.7243 172.314 67.5017 171.062 63.8186C169.81 60.0988 169.184 56.0658 169.184 51.7199ZM187.801 50.5597V51.7199C187.801 53.9665 187.967 56.0658 188.299 58.0179C188.63 59.9699 189.182 61.6825 189.956 63.1557C190.729 64.5921 191.779 65.7154 193.105 66.5257C194.431 67.3359 196.088 67.7411 198.077 67.7411C200.029 67.7411 201.65 67.3359 202.939 66.5257C204.265 65.7154 205.314 64.5921 206.088 63.1557C206.861 61.6825 207.414 59.9699 207.745 58.0179C208.076 56.0658 208.242 53.9665 208.242 51.7199V50.5597C208.242 48.3867 208.076 46.3426 207.745 44.4275C207.414 42.4754 206.861 40.7628 206.088 39.2896C205.314 37.7796 204.265 36.601 202.939 35.7539C201.613 34.9068 199.955 34.4833 197.967 34.4833C196.015 34.4833 194.376 34.9068 193.05 35.7539C191.761 36.601 190.729 37.7796 189.956 39.2896C189.182 40.7628 188.63 42.4754 188.299 44.4275C187.967 46.3426 187.801 48.3867 187.801 50.5597Z" fill="#F2A81D"/>
</svg>
